<svg width="44" height="23" viewBox="0 0 44 23" fill="none" xmlns="http://www.w3.org/2000/svg">
<path d="M8.09122 14.4022C5.86122 14.4022 4.05122 16.2122 4.05122 18.4422C4.05122 20.6722 5.86122 22.4822 8.09122 22.4822C10.3212 22.4822 12.1312 20.6722 12.1312 18.4422C12.1312 16.2122 10.3212 14.4022 8.09122 14.4022ZM8.11122 21.0722C6.67122 21.0722 5.50122 19.9022 5.50122 18.4622C5.50122 17.0222 6.67122 15.8522 8.11122 15.8522C9.55122 15.8522 10.7212 17.0222 10.7212 18.4622C10.7212 19.9022 9.55122 21.0722 8.11122 21.0722Z" fill="white"/>
<path d="M34.8812 14.4322C32.6512 14.4322 30.8412 16.2422 30.8412 18.4722C30.8412 20.7022 32.6512 22.5122 34.8812 22.5122C37.1112 22.5122 38.9212 20.7022 38.9212 18.4722C38.9212 16.2422 37.1112 14.4322 34.8812 14.4322ZM34.9112 21.1022C33.4712 21.1022 32.3012 19.9322 32.3012 18.4922C32.3012 17.0522 33.4712 15.8822 34.9112 15.8822C36.3512 15.8822 37.5212 17.0522 37.5212 18.4922C37.5212 19.9322 36.3512 21.1022 34.9112 21.1022Z" fill="white"/>
<path d="M36.1012 8.01222L32.6212 7.59222C26.8512 1.72222 19.8912 0.262222 19.8912 0.262222C19.8912 0.262222 14.5712 -0.327778 10.9212 0.262222C10.9212 0.262222 4.10122 1.27222 1.07122 9.16222C1.07122 9.16222 -0.428784 13.4022 0.121216 18.0022H2.29122C2.50122 14.9822 5.01122 12.5922 8.09122 12.5922C11.1712 12.5922 13.6912 14.9822 13.8912 18.0122L28.9612 18.0222C29.1312 14.9622 31.6612 12.5222 34.7612 12.5222C37.8712 12.5222 40.4012 14.9622 40.5612 18.0322H43.4812C43.5012 18.0322 43.8612 10.0622 36.1012 8.01222ZM27.3612 8.50222H5.61122C4.57122 8.50222 4.93122 7.46222 4.93122 7.46222C7.57122 3.71222 11.1912 2.83222 11.1912 2.83222C14.8412 2.44222 19.7312 2.83222 19.7312 2.83222C24.5912 4.10222 27.9112 7.00222 28.0512 7.62222C28.1712 8.24222 27.3612 8.50222 27.3612 8.50222Z" fill="white"/>
</svg>
