<?xml version="1.0" encoding="utf-8"?>
<!-- Generator: Adobe Illustrator 23.1.0, SVG Export Plug-In . SVG Version: 6.00 Build 0)  -->
<svg version="1.1" id="Слой_1" xmlns="http://www.w3.org/2000/svg" xmlns:xlink="http://www.w3.org/1999/xlink" x="0px" y="0px"
	 viewBox="0 0 25.22 25.2" style="enable-background:new 0 0 25.22 25.2;" xml:space="preserve">
<style type="text/css">
	.st0{fill:#0085F0;}
	.st1{fill:none;stroke:#FFFFFF;stroke-width:2.8346;stroke-linecap:round;stroke-linejoin:round;}
	.st2{fill:none;stroke:#000000;stroke-width:3.9685;stroke-linejoin:round;}
	.st3{fill:none;stroke:#000000;stroke-width:3.9685;stroke-linecap:round;stroke-linejoin:round;}
	.st4{fill:none;stroke:#000000;stroke-width:2.8346;}
	.st5{fill:#FFAA00;}
	.st6{fill:#B7B7B7;}
	.st7{fill:#FFFFFF;}
</style>
<g>
	<circle class="st0" cx="12.61" cy="12.6" r="12.61"/>
	<g>
		<circle class="st7" cx="12.58" cy="12.67" r="3.05"/>
		<g>
			<rect x="12.01" y="5.25" class="st7" width="1.13" height="2.35"/>
		</g>
		<g>
			<rect x="12.01" y="17.74" class="st7" width="1.13" height="2.35"/>
		</g>
		<g>
			<rect x="5.19" y="12.1" class="st7" width="2.35" height="1.13"/>
		</g>
		<g>
			<rect x="17.68" y="12.1" class="st7" width="2.35" height="1.13"/>
		</g>
		<g>
			<line class="st7" x1="10.03" y1="17.04" x2="8.84" y2="19.06"/>
			
				<rect x="8.26" y="17.48" transform="matrix(0.5081 -0.8613 0.8613 0.5081 -10.9037 17.0044)" class="st7" width="2.35" height="1.13"/>
		</g>
		<g>
			<line class="st7" x1="16.38" y1="6.28" x2="15.18" y2="8.31"/>
			
				<rect x="14.61" y="6.73" transform="matrix(0.5081 -0.8613 0.8613 0.5081 1.4792 17.18)" class="st7" width="2.35" height="1.13"/>
		</g>
		<g>
			<line class="st7" x1="8.08" y1="15.03" x2="6.01" y2="16.14"/>
			
				<rect x="5.87" y="15.02" transform="matrix(0.8806 -0.4739 0.4739 0.8806 -6.5446 5.2008)" class="st7" width="2.35" height="1.13"/>
		</g>
		<g>
			<line class="st7" x1="19.08" y1="9.11" x2="17.01" y2="10.23"/>
			
				<rect x="16.87" y="9.1" transform="matrix(0.8806 -0.4739 0.4739 0.8806 -2.4279 9.7053)" class="st7" width="2.35" height="1.13"/>
		</g>
		<g>
			<line class="st7" x1="15.09" y1="17.1" x2="16.28" y2="19.13"/>
			
				<rect x="15.12" y="16.94" transform="matrix(0.8614 -0.508 0.508 0.8614 -7.0285 10.4795)" class="st7" width="1.13" height="2.35"/>
		</g>
		<g>
			<line class="st7" x1="8.74" y1="6.35" x2="9.94" y2="8.37"/>
			
				<rect x="8.77" y="6.19" transform="matrix(0.8612 -0.5083 0.5083 0.8612 -2.4458 5.7694)" class="st7" width="1.13" height="2.35"/>
		</g>
		<g>
			<line class="st7" x1="17.04" y1="15.1" x2="19.11" y2="16.21"/>
			
				<rect x="17.51" y="14.48" transform="matrix(0.474 -0.8806 0.8806 0.474 -4.2761 24.1489)" class="st7" width="1.13" height="2.35"/>
		</g>
		<g>
			<line class="st7" x1="6.04" y1="9.18" x2="8.11" y2="10.29"/>
			
				<rect x="6.51" y="8.56" transform="matrix(0.474 -0.8806 0.8806 0.474 -4.8512 11.3542)" class="st7" width="1.13" height="2.35"/>
		</g>
	</g>
</g>
</svg>
