<svg width="13" height="10" viewBox="0 0 13 10" fill="none" xmlns="http://www.w3.org/2000/svg">
<path d="M10.1724 1.67023L4.67023 7.17238C4.19377 7.64884 4.15615 8.38371 4.58619 8.81375L4.5862 8.81376C5.01624 9.24381 5.75111 9.20618 6.22757 8.72972L11.7297 3.22757C12.2062 2.75111 12.2438 2.01624 11.8138 1.5862L11.8138 1.58619C11.3837 1.15614 10.6488 1.19377 10.1724 1.67023Z" fill="#464646"/>
<path d="M1.01044 5.2176L4.4003 8.60745C4.92356 9.13071 5.69599 9.20666 6.12556 8.77709L6.12557 8.77708C6.55514 8.34751 6.4792 7.57508 5.95593 7.05182L2.56608 3.66196C2.04282 3.1387 1.27039 3.06275 0.840815 3.49233L0.84081 3.49233C0.411234 3.92191 0.487182 4.69434 1.01044 5.2176Z" fill="#464646"/>
</svg>
