<?xml version="1.0" encoding="utf-8"?>
<!-- Generator: Adobe Illustrator 23.1.0, SVG Export Plug-In . SVG Version: 6.00 Build 0)  -->
<svg version="1.1" id="Слой_1" xmlns="http://www.w3.org/2000/svg" xmlns:xlink="http://www.w3.org/1999/xlink" x="0px" y="0px"
	 viewBox="0 0 67.98 64.42" style="enable-background:new 0 0 67.98 64.42;" xml:space="preserve">
<style type="text/css">
	.st0{fill:#0085F0;}
	.st1{fill:none;stroke:#FFFFFF;stroke-width:2.8346;stroke-linecap:round;stroke-linejoin:round;}
	.st2{fill:none;stroke:#000000;stroke-width:3.9685;stroke-linejoin:round;}
	.st3{fill:none;stroke:#000000;stroke-width:3.9685;stroke-linecap:round;stroke-linejoin:round;}
	.st4{fill:none;stroke:#000000;stroke-width:2.8346;}
	.st5{fill:#FFAA00;}
	.st6{fill:#B7B7B7;}
	.st7{fill:#FFFFFF;}
</style>
<g>
	<polyline class="st4" points="63.26,64.42 63.26,50.15 50.86,50.15 50.86,64.42 	"/>
	<polyline class="st4" points="28.42,64.36 28.42,48.18 15.98,48.18 15.98,64.36 	"/>
	<polyline class="st4" points="5.92,64.36 5.92,53.24 15.98,53.24 	"/>
	<path class="st4" d="M10.95,27.17v5.32l-7.62,9.24c0,0-4.54,6.45,2.59,11.5"/>
	<line class="st4" x1="22.2" y1="29.63" x2="22.2" y2="20.12"/>
	<path class="st4" d="M39.54,0v7.22l-2.85,3.01c0,0-3.94,4.15,0.13,7.95"/>
	<path class="st4" d="M57.06,24.88v7.05l-8.18,9.06c0,0-2.94,4.53,1.98,9.17"/>
	<path class="st4" d="M57.31,32.11l8.18,9.06c0,0,2.94,4.53-1.98,9.17"/>
	<path class="st4" d="M15.98,48.18c0,0-7.06-2.98-3.21-10.36l9.33-10.21"/>
	<path class="st4" d="M27.84,48.18c0,0,7.06-2.98,3.21-10.36l-8.92-9.8"/>
	<line class="st4" x1="14.75" y1="35.66" x2="10.95" y2="32.49"/>
	<path class="st4" d="M35.18,18.17h0.79h7.58"/>
	<path class="st4" d="M39.54,7.22l2.85,3.01c0,0,3.94,4.15-0.13,7.95"/>
	<line class="st4" x1="36.32" y1="17.65" x2="27.16" y2="32.31"/>
	<polyline class="st4" points="43.16,17.77 51.22,32.18 51.51,32.69 	"/>
	<line class="st4" x1="51.3" y1="31.9" x2="51.3" y2="38.69"/>
	<line class="st4" x1="27.91" y1="34.07" x2="51.13" y2="34.07"/>
</g>
</svg>
