<svg width="17" height="14" viewBox="0 0 17 14" fill="none" xmlns="http://www.w3.org/2000/svg">
<path fill-rule="evenodd" clip-rule="evenodd" d="M10.58 0.919998C10.58 0.643856 10.8039 0.419998 11.08 0.419998H13.1C13.3761 0.419998 13.6 0.643856 13.6 0.919998V4.34C13.6 4.35645 13.5992 4.37271 13.5977 4.38875L15.8329 6.0048C16.0567 6.16659 16.107 6.47916 15.9452 6.70294C15.7834 6.92673 15.4708 6.97698 15.2471 6.81519L13.57 5.60273V13.11C13.57 13.3861 13.3461 13.61 13.07 13.61H3.12C2.84385 13.61 2.62 13.3861 2.62 13.11V5.71417L0.969738 6.95019C0.748717 7.11574 0.435345 7.07076 0.269803 6.84974C0.104261 6.62872 0.149235 6.31535 0.370257 6.1498L2.7403 4.37467C2.7879 4.31916 2.84747 4.27421 2.91501 4.24381L7.78026 0.599804C7.95596 0.468201 8.19696 0.466602 8.3744 0.595862L10.58 2.20259V0.919998ZM11.58 2.93004L12.6 3.66747V1.42H11.58V2.93004ZM12.57 4.87975L10.8071 3.60519L10.8056 3.60413L8.08412 1.62161L3.62 4.96518V12.61H6.08V8.16C6.08 7.88386 6.30385 7.66 6.58 7.66H9.67C9.94614 7.66 10.17 7.88386 10.17 8.16V12.61H12.57V4.87975ZM9.17 12.61V8.66H7.08V12.61H9.17Z" fill="#008EF2"/>
</svg>
