<svg width="25" height="33" viewBox="0 0 25 33" fill="none" xmlns="http://www.w3.org/2000/svg">
<path d="M12.5 0C5.60833 0 0 5.59075 0 12.4644C0 22.231 11.325 32.3152 11.8069 32.7387C12.0056 32.9134 12.2528 33 12.5 33C12.7472 33 12.9944 32.9134 13.1931 32.7401C13.675 32.3153 25 22.231 25 12.4644C25 5.59075 19.3917 0 12.5 0ZM12.5 19.25C8.67083 19.25 5.55556 16.1659 5.55556 12.375C5.55556 8.58412 8.67083 5.5 12.5 5.5C16.3292 5.5 19.4444 8.58412 19.4444 12.375C19.4444 16.1659 16.3292 19.25 12.5 19.25Z" fill="white"/>
</svg>
