<svg width="34" height="44" viewBox="0 0 34 44" fill="none" xmlns="http://www.w3.org/2000/svg">
<circle cx="17" cy="16" r="11" fill="white"/>
<path d="M17 0C7.62733 0 0 7.45433 0 16.6192C0 29.6413 15.402 43.087 16.0574 43.6517C16.3276 43.8845 16.6638 44 17 44C17.3362 44 17.6724 43.8845 17.9426 43.6535C18.598 43.087 34 29.6413 34 16.6192C34 7.45433 26.3727 0 17 0ZM17 25.6667C11.7923 25.6667 7.55556 21.5545 7.55556 16.5C7.55556 11.4455 11.7923 7.33333 17 7.33333C22.2077 7.33333 26.4444 11.4455 26.4444 16.5C26.4444 21.5545 22.2077 25.6667 17 25.6667Z" fill="#0083DE"/>
</svg>
