<?xml version="1.0" encoding="utf-8"?>
<!-- Generator: Adobe Illustrator 23.1.0, SVG Export Plug-In . SVG Version: 6.00 Build 0)  -->
<svg version="1.1"
	 id="Livello_1" xmlns:cc="http://creativecommons.org/ns#" xmlns:dc="http://purl.org/dc/elements/1.1/" xmlns:rdf="http://www.w3.org/1999/02/22-rdf-syntax-ns#"
	 xmlns="http://www.w3.org/2000/svg" xmlns:xlink="http://www.w3.org/1999/xlink" x="0px" y="0px" viewBox="0 0 200 123.6"
	 style="enable-background:new 0 0 200 123.6;" xml:space="preserve">
<style type="text/css">
	.st0{fill:#00A2E5;}
	.st1{fill:#7375CF;}
	.st2{fill:#EB001B;}
</style>
<g>
	<path class="st0" d="M198.1,100.1v-2.4h-0.6l-0.7,1.6l-0.7-1.6h-0.6v2.4h0.4v-1.8l0.7,1.6h0.5l0.7-1.6v1.8H198.1z M194.1,100.1v-2
		h0.8v-0.4h-2v0.4h0.8v2H194.1z"/>
	<path class="st1" d="M127,110.4H72.9V13.2H127V110.4z"/>
	<path class="st2" d="M76.4,61.8c0-19.7,9.2-37.3,23.6-48.6C89.5,4.9,76.2,0,61.8,0C27.7,0,0,27.7,0,61.8s27.7,61.8,61.8,61.8
		c14.4,0,27.7-4.9,38.2-13.2C85.6,99.1,76.4,81.5,76.4,61.8"/>
	<path class="st0" d="M200,61.8c0,34.1-27.7,61.8-61.8,61.8c-14.4,0-27.7-4.9-38.2-13.2c14.4-11.3,23.6-28.9,23.6-48.6
		s-9.2-37.3-23.6-48.6C110.5,4.9,123.8,0,138.2,0C172.3,0,200,27.7,200,61.8"/>
</g>
</svg>
