<?xml version="1.0" encoding="utf-8"?>
<!-- Generator: Adobe Illustrator 23.1.0, SVG Export Plug-In . SVG Version: 6.00 Build 0)  -->
<svg version="1.1" id="Слой_1" xmlns="http://www.w3.org/2000/svg" xmlns:xlink="http://www.w3.org/1999/xlink" x="0px" y="0px"
	 viewBox="0 0 25.22 25.22" style="enable-background:new 0 0 25.22 25.22;" xml:space="preserve">
<style type="text/css">
	.st0{fill:#0085F0;}
	.st1{fill:none;stroke:#FFFFFF;stroke-width:2.8346;stroke-linecap:round;stroke-linejoin:round;}
	.st2{fill:none;stroke:#000000;stroke-width:3.9685;stroke-linejoin:round;}
	.st3{fill:none;stroke:#000000;stroke-width:3.9685;stroke-linecap:round;stroke-linejoin:round;}
	.st4{fill:none;stroke:#000000;stroke-width:2.8346;}
	.st5{fill:#FFAA00;}
	.st6{fill:#B7B7B7;}
	.st7{fill:#FFFFFF;}
</style>
<g>
	<circle class="st0" cx="12.61" cy="12.61" r="12.61"/>
	<path class="st7" d="M17.47,16.07c-0.58-0.37-1.64-0.92-3.51-1.65c0,0-0.34-0.93-0.03-2.01c0.82-0.58,1.38-1.68,1.38-2.95
		c0-1.88-1.21-3.4-2.69-3.4c-1.49,0-2.69,1.52-2.69,3.4c0,1.35,0.62,2.5,1.52,3.05c0.26,1.04-0.05,1.92-0.05,1.92
		c-1.45,0.56-2.4,1.02-3.03,1.37c-0.97,0.36-1.56,0.84-1.56,1.37c0,1.11,2.6,2.01,5.8,2.01s5.8-0.9,5.8-2.01
		C18.4,16.75,18.05,16.38,17.47,16.07z"/>
</g>
</svg>
