<svg width="13" height="13" viewBox="0 0 13 13" fill="none" xmlns="http://www.w3.org/2000/svg">
<path fill-rule="evenodd" clip-rule="evenodd" d="M6.5 1C3.46243 1 1 3.46243 1 6.5C1 9.53757 3.46243 12 6.5 12C9.53757 12 12 9.53757 12 6.5C12 3.46243 9.53757 1 6.5 1ZM0 6.5C0 2.91015 2.91015 0 6.5 0C10.0899 0 13 2.91015 13 6.5C13 10.0899 10.0899 13 6.5 13C2.91015 13 0 10.0899 0 6.5ZM6.3 3.08C6.57614 3.08 6.8 3.30386 6.8 3.58V6.60365L8.58447 8.39736C8.77922 8.59313 8.7784 8.90971 8.58264 9.10447C8.38687 9.29922 8.07029 9.2984 7.87553 9.10264L5.94553 7.16264C5.85232 7.06895 5.8 6.94216 5.8 6.81V3.58C5.8 3.30386 6.02386 3.08 6.3 3.08Z" fill="black"/>
</svg>
