<svg width="15" height="14" viewBox="0 0 15 14" fill="none" xmlns="http://www.w3.org/2000/svg">
<path fill-rule="evenodd" clip-rule="evenodd" d="M3.38413 0.997996C3.38524 0.722638 3.60877 0.5 3.88413 0.5H10.8841C11.1603 0.5 11.3841 0.723858 11.3841 1V1.5034L13.8175 1.52001C14.0803 1.5218 14.2968 1.72661 14.3132 1.98881L13.8141 2.02C14.3132 1.98881 14.3131 1.98858 14.3132 1.98881L14.3133 1.99113L14.3135 1.99486L14.3141 2.00647C14.3146 2.01602 14.3152 2.02917 14.3157 2.04569C14.3169 2.07871 14.318 2.12527 14.3182 2.18347C14.3187 2.29972 14.3153 2.46335 14.3007 2.65912C14.2717 3.04793 14.1971 3.57714 14.0106 4.11801C13.8242 4.65824 13.5182 5.23318 13.0118 5.68406C12.5807 6.06789 12.025 6.34307 11.3254 6.44229C11.3106 6.5265 11.2921 6.62143 11.2692 6.72497C11.1802 7.12816 11.0225 7.67268 10.7461 8.22405C10.2454 9.22305 9.32983 10.279 7.73413 10.4988V12.51H9.61413C9.89027 12.51 10.1141 12.7339 10.1141 13.01C10.1141 13.2861 9.89027 13.51 9.61413 13.51H4.84413C4.56799 13.51 4.34413 13.2861 4.34413 13.01C4.34413 12.7339 4.56799 12.51 4.84413 12.51H6.73413V10.4646C6.66829 10.4483 6.5953 10.4285 6.51646 10.4047C6.1789 10.3026 5.726 10.1233 5.26745 9.81271C4.4077 9.23029 3.56526 8.20848 3.39381 6.48547C2.74315 6.37434 2.22118 6.10833 1.81132 5.7446C1.30339 5.29386 0.996194 4.71895 0.809135 4.17856C0.621867 3.63756 0.546938 3.10823 0.517721 2.71933C0.503009 2.52352 0.499641 2.35985 0.500029 2.24356C0.500224 2.18534 0.501361 2.13877 0.502513 2.10574C0.503089 2.08921 0.503669 2.07605 0.504139 2.06649L0.504746 2.05487L0.504961 2.05114L0.505041 2.0498C0.505055 2.04956 0.505102 2.04881 1.00413 2.08L0.505041 2.0498C0.521511 1.78628 0.740096 1.58 1.00413 1.58H3.3818L3.38413 0.997996ZM4.37953 2.14809C4.38256 2.12583 4.38413 2.1031 4.38413 2.08C4.38413 2.05829 4.38274 2.0369 4.38006 2.01592L4.38213 1.5H10.3841V1.99888C10.3841 1.99967 10.3841 2.00047 10.3841 2.00127V5.96627L10.3826 5.98134C10.38 6.00581 10.3755 6.04364 10.3686 6.09293C10.3547 6.19165 10.3311 6.33551 10.2928 6.50941C10.2155 6.85934 10.0808 7.31982 9.85214 7.77595C9.40295 8.67209 8.62268 9.50879 7.19467 9.53943C7.17754 9.53675 7.15273 9.53258 7.12119 9.52646C7.04777 9.51223 6.93874 9.48766 6.80585 9.44749C6.53873 9.36673 6.18351 9.22542 5.8283 8.98479C5.18173 8.54679 4.49735 7.75752 4.37984 6.28547C4.41777 6.21828 4.44066 6.14127 4.44377 6.05885C4.44778 5.95271 4.4184 5.85306 4.36501 5.77L4.37953 2.14809ZM3.37779 2.58H1.51045C1.51178 2.60094 1.51326 2.62243 1.51491 2.64442C1.54007 2.97927 1.60389 3.41744 1.75412 3.85144C1.90456 4.28605 2.13362 4.69364 2.47506 4.99665C2.70129 5.1974 2.98989 5.36413 3.36625 5.45867L3.37779 2.58ZM11.3841 5.41649C11.796 5.32616 12.1066 5.15102 12.3468 4.93719C12.687 4.63432 12.9153 4.22676 13.0652 3.79199C13.2149 3.35786 13.2785 2.91957 13.3035 2.58463C13.3052 2.56136 13.3068 2.53866 13.3081 2.51656L11.3841 2.50342V5.41649Z" fill="#008EF2"/>
</svg>
