<svg width="14" height="15" viewBox="0 0 14 15" fill="none" xmlns="http://www.w3.org/2000/svg">
<path fill-rule="evenodd" clip-rule="evenodd" d="M0.5 1C0.5 0.723858 0.723858 0.5 1 0.5H11.05C11.3261 0.5 11.55 0.723858 11.55 1V3.52C11.55 3.79614 11.3261 4.02 11.05 4.02C10.7739 4.02 10.55 3.79614 10.55 3.52V1.5H1.5V13.53H10.58V10.02C10.58 9.74386 10.8039 9.52 11.08 9.52C11.3561 9.52 11.58 9.74386 11.58 10.02V14.03C11.58 14.3061 11.3561 14.53 11.08 14.53H1C0.723858 14.53 0.5 14.3061 0.5 14.03V1ZM2.53 3.03C2.53 2.75386 2.75386 2.53 3.03 2.53H8.97C9.24614 2.53 9.47 2.75386 9.47 3.03C9.47 3.30614 9.24614 3.53 8.97 3.53H3.03C2.75386 3.53 2.53 3.30614 2.53 3.03ZM13.2118 3.61036C13.4436 3.7605 13.5098 4.07009 13.3596 4.30185L8.77964 11.3718C8.62951 11.6036 8.31991 11.6698 8.08815 11.5196C7.85639 11.3695 7.79022 11.0599 7.94036 10.8282L12.5204 3.75815C12.6705 3.52639 12.9801 3.46022 13.2118 3.61036ZM2.53 5.03C2.53 4.75386 2.75386 4.53 3.03 4.53H8.97C9.24614 4.53 9.47 4.75386 9.47 5.03C9.47 5.30614 9.24614 5.53 8.97 5.53H3.03C2.75386 5.53 2.53 5.30614 2.53 5.03ZM2.51 7.09C2.51 6.81386 2.73386 6.59 3.01 6.59H9.02C9.29614 6.59 9.52 6.81386 9.52 7.09C9.52 7.36614 9.29614 7.59 9.02 7.59H3.01C2.73386 7.59 2.51 7.36614 2.51 7.09ZM2.48 10.05C2.48 9.77386 2.70386 9.55 2.98 9.55H6.04C6.31614 9.55 6.54 9.77386 6.54 10.05C6.54 10.3261 6.31614 10.55 6.04 10.55H2.98C2.70386 10.55 2.48 10.3261 2.48 10.05ZM2.48 12.03C2.48 11.7539 2.70386 11.53 2.98 11.53H6.04C6.31614 11.53 6.54 11.7539 6.54 12.03C6.54 12.3061 6.31614 12.53 6.04 12.53H2.98C2.70386 12.53 2.48 12.3061 2.48 12.03Z" fill="#008EF2"/>
</svg>
