<?xml version="1.0" encoding="utf-8"?>
<!-- Generator: Adobe Illustrator 23.1.0, SVG Export Plug-In . SVG Version: 6.00 Build 0)  -->
<svg version="1.1" id="Слой_1" xmlns="http://www.w3.org/2000/svg" xmlns:xlink="http://www.w3.org/1999/xlink" x="0px" y="0px"
	 viewBox="0 0 24.11 24.2" style="enable-background:new 0 0 24.11 24.2;" xml:space="preserve">
<style type="text/css">
	.st0{fill:#FFFFFF;}
</style>
<g>
	<g>
		<rect x="11.38" y="3.52" width="11.72" height="2.13"/>
	</g>
	<g>
		<rect x="0.93" y="10.99" width="7.73" height="2.13"/>
	</g>
	<g>
		<rect x="0.93" y="18.38" width="5.43" height="2.13"/>
	</g>
	<g>
		<rect x="16.13" y="18.38" width="6.96" height="2.13"/>
	</g>
	<g>
		<circle class="st0" cx="4.8" cy="4.58" r="2.76"/>
		<path d="M4.8,8.41c-2.11,0-3.82-1.72-3.82-3.83c0-2.11,1.72-3.82,3.82-3.82s3.82,1.72,3.82,3.82C8.62,6.69,6.91,8.41,4.8,8.41z
			 M4.8,2.89c-0.94,0-1.7,0.76-1.7,1.7s0.76,1.7,1.7,1.7s1.7-0.76,1.7-1.7S5.73,2.89,4.8,2.89z"/>
	</g>
	<g>
		<circle class="st0" cx="15.54" cy="12.01" r="2.76"/>
		<path d="M15.54,15.84c-2.11,0-3.82-1.71-3.82-3.82c0-2.11,1.72-3.83,3.82-3.83s3.82,1.72,3.82,3.83
			C19.36,14.12,17.65,15.84,15.54,15.84z M15.54,10.32c-0.94,0-1.7,0.76-1.7,1.7s0.76,1.7,1.7,1.7s1.7-0.76,1.7-1.7
			S16.47,10.32,15.54,10.32z"/>
	</g>
	<g>
		<circle class="st0" cx="9.32" cy="19.53" r="2.76"/>
		<path d="M9.31,23.35c-2.11,0-3.82-1.72-3.82-3.83c0-2.11,1.72-3.82,3.82-3.82s3.82,1.71,3.82,3.82
			C13.14,21.64,11.42,23.35,9.31,23.35z M9.31,17.83c-0.94,0-1.7,0.76-1.7,1.7s0.76,1.7,1.7,1.7s1.7-0.76,1.7-1.7
			S10.25,17.83,9.31,17.83z"/>
	</g>
	<g>
		<rect x="18.3" y="10.95" width="4.8" height="2.13"/>
	</g>
</g>
</svg>
