<svg width="19" height="20" viewBox="0 0 19 20" fill="none" xmlns="http://www.w3.org/2000/svg">
<path fill-rule="evenodd" clip-rule="evenodd" d="M8.5 18.935C8.5 18.4186 8.08139 18 7.565 18L3.565 18C3.28259 18 3.0117 17.8878 2.81193 17.688C2.61221 17.4883 2.5 17.2175 2.5 16.935L2.5 2.935C2.5 2.65258 2.61219 2.3817 2.81194 2.18194C3.0117 1.98218 3.28258 1.86999 3.565 1.86999L7.565 1.86999C8.08139 1.86999 8.5 1.45138 8.5 0.934995C8.5 0.418609 8.08139 -4.09526e-06 7.565 -4.11784e-06L3.565 -3.94299e-06C2.78662 -3.97701e-06 2.0401 0.309208 1.48966 0.859652C0.939214 1.41009 0.630001 2.15661 0.630001 2.935L0.63 16.935C0.63 17.7134 0.9392 18.4599 1.48967 19.0104C2.0401 19.5608 2.78661 19.87 3.565 19.87L7.565 19.87C8.08139 19.87 8.5 19.4514 8.5 18.935Z" fill="black"/>
<path fill-rule="evenodd" clip-rule="evenodd" d="M12.2736 15.5962C11.9084 15.2311 11.9084 14.6391 12.2736 14.2739L16.6124 9.93507L12.2736 5.59622C11.9084 5.23108 11.9084 4.63907 12.2736 4.27393C12.6387 3.90879 13.2307 3.90879 13.5959 4.27393L18.5959 9.27393C18.961 9.63907 18.961 10.2311 18.5959 10.5962L13.5959 15.5962C13.2307 15.9614 12.6387 15.9614 12.2736 15.5962Z" fill="black"/>
<path fill-rule="evenodd" clip-rule="evenodd" d="M4.99971 9.93507C4.99971 9.41869 5.41832 9.00007 5.93471 9.00007L17.9347 9.00007C18.4511 9.00007 18.8697 9.41869 18.8697 9.93507C18.8697 10.4515 18.4511 10.8701 17.9347 10.8701L5.93471 10.8701C5.41832 10.8701 4.99971 10.4515 4.99971 9.93507Z" fill="black"/>
</svg>
