<?xml version="1.0" encoding="utf-8"?>
<!-- Generator: Adobe Illustrator 23.1.0, SVG Export Plug-In . SVG Version: 6.00 Build 0)  -->
<svg version="1.1" id="Слой_1" xmlns="http://www.w3.org/2000/svg" xmlns:xlink="http://www.w3.org/1999/xlink" x="0px" y="0px"
	 viewBox="0 0 17.29 16.42" style="enable-background:new 0 0 17.29 16.42;" xml:space="preserve">
<style type="text/css">
	.st0{fill:#868686;}
	.st1{fill:#868685;}
</style>
<path class="st0" d="M1.42,5.32l2.29,1.27c0.08,0.04,0.18,0.07,0.28,0.09c0.18,0.01,0.34-0.02,0.48-0.09l9.08-4.8l0.51-0.21
	c0.18-0.03,0.31-0.07,0.5-0.07c0.26-0.02,0.49,0.02,0.77,0.07c0.22,0.03,0.45,0.09,0.68,0.17c0.15,0.07,0.29,0.17,0.42,0.3
	c0.13,0.16,0.22,0.35,0.3,0.55c0.03,0.07,0.02,0.16,0,0.25L5.7,8.93C5.38,9.05,5.07,9.14,4.77,9.17c-0.3,0.04-0.59,0.03-0.82,0
	C3.62,9.15,3.33,9.06,3.11,8.89L0.69,5.75c-0.04-0.13-0.04-0.26,0-0.38c0.04-0.1,0.13-0.15,0.25-0.17C1.11,5.2,1.26,5.25,1.42,5.32z
	"/>
<path class="st0" d="M9.04,9.46l3.8-2.21l-2.52,7.88c-0.12,0.17-0.22,0.35-0.38,0.46c-0.19,0.05-0.38,0.08-0.57,0.02
	c-0.12-0.03-0.21-0.12-0.33-0.22c-0.07-0.12-0.13-0.27-0.15-0.49V9.75C8.9,9.62,8.95,9.52,9.04,9.46z"/>
<path class="st0" d="M5.24,4.32l3.08-1.45l-4.67-1.7c-0.14-0.02-0.28-0.03-0.42,0C3.11,1.22,3.01,1.29,2.94,1.38
	C2.88,1.45,2.84,1.54,2.8,1.63c-0.03,0.15,0,0.35,0.07,0.49c0.07,0.14,0.21,0.27,0.34,0.42L5.24,4.32z"/>
</svg>
