<?xml version="1.0" encoding="utf-8"?>
<!-- Generator: Adobe Illustrator 23.1.0, SVG Export Plug-In . SVG Version: 6.00 Build 0)  -->
<svg version="1.1" xmlns="http://www.w3.org/2000/svg" xmlns:xlink="http://www.w3.org/1999/xlink" x="0px" y="0px"
	 viewBox="0 0 20.1 19.8" style="enable-background:new 0 0 20.1 19.8;" xml:space="preserve">
<style type="text/css">
	.st0{fill:url(#path2995-1-0_3_);}
	.st1{fill:#C8DAEA;}
	.st2{fill:#A9C9DD;}
	.st3{fill:url(#path2991_1_);}
	.st4{fill:#B3B3B3;}
	.st5{fill:#FFFFFF;}
	.st6{fill:none;}
	.st7{fill:url(#SVGID_1_);}
	.st8{fill-rule:evenodd;clip-rule:evenodd;fill:#FFFFFF;}
	.st9{fill:#0085F1;}
</style>
<g id="Слой_2">
	<path id="path2995-1-0_2_" class="st9" d="M19.2,9.9c0,5.1-4.1,9.2-9.2,9.2S0.8,15,0.8,9.9S4.9,0.7,10,0.7S19.2,4.8,19.2,9.9z"/>
</g>
<g id="Слой_1">
	<path class="st5" d="M7.9,4.9C6.3,4.9,5,6.2,5,7.8V12c0,1.6,1.3,2.9,2.9,2.9h4.2c1.6,0,2.9-1.3,2.9-2.9V7.8c0-1.6-1.3-2.9-2.9-2.9
		C12.1,4.9,7.9,4.9,7.9,4.9z M7.9,5.6h4.2c1.2,0,2.1,1,2.1,2.1V12c0,1.2-1,2.1-2.1,2.1H7.9c-1.2,0-2.1-1-2.1-2.1V7.8
		C5.7,6.6,6.7,5.6,7.9,5.6z M12.9,6.4c-0.3,0-0.6,0.3-0.6,0.6c0,0.3,0.3,0.6,0.6,0.6c0.3,0,0.6-0.3,0.6-0.6
		C13.5,6.7,13.2,6.4,12.9,6.4z M10,7.2c-1.5,0-2.7,1.2-2.7,2.7s1.2,2.7,2.7,2.7s2.7-1.2,2.7-2.7S11.5,7.2,10,7.2z M10,7.9
		c1.1,0,1.9,0.9,1.9,1.9s-0.9,1.9-1.9,1.9s-1.9-0.9-1.9-1.9C8.1,8.8,8.9,7.9,10,7.9z"/>
</g>
</svg>
