<?xml version="1.0" encoding="utf-8"?>
<!-- Generator: Adobe Illustrator 23.1.0, SVG Export Plug-In . SVG Version: 6.00 Build 0)  -->
<svg version="1.1" xmlns="http://www.w3.org/2000/svg" xmlns:xlink="http://www.w3.org/1999/xlink" x="0px" y="0px"
	 viewBox="0 0 19.9 19.8" style="enable-background:new 0 0 19.9 19.8;" xml:space="preserve">
<style type="text/css">
	.st0{fill:url(#path2995-1-0_3_);}
	.st1{fill:#C8DAEA;}
	.st2{fill:#A9C9DD;}
	.st3{fill:url(#path2991_1_);}
	.st4{fill:#FFFFFF;}
	.st5{fill:none;}
	.st6{fill:url(#SVGID_1_);}
	.st7{fill-rule:evenodd;clip-rule:evenodd;fill:#FFFFFF;}
	.st8{fill:#0085F1;}
	.st9{fill:#AFAFAF;}
</style>
<g id="Слой_2">
	<path class="st4" d="M0.8,19.3l1.3-4.8c-0.8-1.4-1.2-3-1.2-4.6c0-5.1,4.1-9.2,9.2-9.2c2.5,0,4.8,1,6.5,2.7s2.7,4,2.7,6.5
		c0,5.1-4.1,9.2-9.2,9.2h0c-1.5,0-3-0.4-4.4-1.1L0.8,19.3z"/>
	<path class="st5" d="M10,2.4c-4.2,0-7.6,3.4-7.6,7.6c0,1.4,0.4,2.8,1.2,4.1l0.2,0.3L3,17.2l2.9-0.8l0.3,0.2
		c1.2,0.7,2.5,1.1,3.9,1.1h0c4.2,0,7.6-3.4,7.6-7.6c0-2-0.8-4-2.2-5.4C14,3.2,12,2.4,10,2.4L10,2.4z"/>
	
		<linearGradient id="SVGID_1_" gradientUnits="userSpaceOnUse" x1="9.9664" y1="-1215.4744" x2="10.0437" y2="-1228.509" gradientTransform="matrix(1 0 0 -1 0 -1212.1887)">
		<stop  offset="0" style="stop-color:#57D163"/>
		<stop  offset="1" style="stop-color:#23B33A"/>
	</linearGradient>
	<path class="st6" d="M10,2.4c-4.2,0-7.6,3.4-7.6,7.6c0,1.4,0.4,2.8,1.2,4.1l0.2,0.3L3,17.2l2.9-0.8l0.3,0.2
		c1.2,0.7,2.5,1.1,3.9,1.1h0c4.2,0,7.6-3.4,7.6-7.6c0-2-0.8-4-2.2-5.4C14,3.2,12,2.4,10,2.4z"/>
	<path class="st7" d="M7.7,6.2C7.5,5.8,7.4,5.8,7.2,5.8l-0.4,0C6.6,5.8,6.4,5.8,6.1,6C5.9,6.3,5.3,6.8,5.3,8s0.8,2.2,0.9,2.4
		c0.1,0.2,1.6,2.5,3.9,3.5c1.9,0.8,2.3,0.6,2.8,0.6s1.4-0.6,1.5-1.1s0.2-1,0.1-1.1c-0.1-0.1-0.2-0.2-0.4-0.3
		c-0.2-0.1-1.4-0.7-1.6-0.7s-0.4-0.1-0.5,0.1c-0.2,0.2-0.6,0.7-0.7,0.9c-0.1,0.2-0.3,0.2-0.5,0.1c-0.2-0.1-1-0.4-1.8-1.1
		c-0.7-0.6-1.1-1.4-1.3-1.6C7.6,9.3,7.8,9.2,7.9,9C8,8.9,8.1,8.8,8.2,8.6c0.1-0.1,0.2-0.2,0.2-0.4c0.1-0.2,0-0.3,0-0.4
		C8.4,7.7,7.9,6.6,7.7,6.2"/>
	<path class="st9" d="M0.6,19.7L2,14.7c-0.8-1.4-1.2-3-1.2-4.6c0-5.1,4.2-9.3,9.3-9.3c2.5,0,4.8,1,6.6,2.7c1.8,1.8,2.7,4.1,2.7,6.6
		c0,5.1-4.2,9.3-9.3,9.3c-1.5,0-3.1-0.4-4.4-1.1L0.6,19.7z M10.1,1.1c-5,0-9,4.1-9,9c0,1.6,0.4,3.1,1.2,4.5l0,0.1L1,19.3L5.7,18l0,0
		c1.3,0.7,2.8,1.1,4.3,1.1c5,0,9-4.1,9-9c0-2.4-0.9-4.7-2.6-6.4C14.8,2,12.5,1.1,10.1,1.1z"/>
</g>
<g id="Слой_1">
</g>
</svg>
