<?xml version="1.0" encoding="utf-8"?>
<!-- Generator: Adobe Illustrator 23.1.0, SVG Export Plug-In . SVG Version: 6.00 Build 0)  -->
<svg version="1.1" xmlns="http://www.w3.org/2000/svg" xmlns:xlink="http://www.w3.org/1999/xlink" x="0px" y="0px"
	 viewBox="0 0 20.2 19.7" style="enable-background:new 0 0 20.2 19.7;" xml:space="preserve">
<style type="text/css">
	.st0{fill:url(#path2995-1-0_3_);}
	.st1{fill:#C8DAEA;}
	.st2{fill:#A9C9DD;}
	.st3{fill:url(#path2991_1_);}
	.st4{fill:#B3B3B3;}
	.st5{fill:#FFFFFF;}
	.st6{fill:none;}
	.st7{fill:url(#SVGID_1_);}
	.st8{fill-rule:evenodd;clip-rule:evenodd;fill:#FFFFFF;}
	.st9{fill:#0085F1;}
</style>
<g id="Слой_2">
	<path id="path2995-1-0_1_" class="st9" d="M19.4,9.9c0,5.1-4.1,9.2-9.2,9.2S0.9,15,0.9,9.9s4.1-9.2,9.2-9.2S19.4,4.8,19.4,9.9z"/>
	<path class="st5" d="M16.3,13.5c-0.5-0.9-1.8-2-2.4-2.5c-0.1-0.1-0.2-0.4,0-0.5c1-1.1,1.9-2.4,2.1-3.2c0.1-0.3-0.1-0.7-0.5-0.7
		h-1.1c-0.4,0-0.6,0.1-0.7,0.3c-0.9,1.8-1.6,2.5-2.1,3c-0.3,0.2-0.7,0-0.7-0.3c0-0.7,0-1.7,0-2.3c0-0.3-0.3-0.6-0.6-0.6l-1.9,0
		c-0.2,0-0.4,0.3-0.2,0.5l0.3,0.5c0.1,0.2,0.2,0.4,0.2,0.6v2.1c0,0.4-0.4,0.5-0.7,0.3C7.2,9.6,6.4,7.9,6.1,7C6,6.8,5.8,6.6,5.6,6.6
		h-1C4.1,6.6,3.8,7,3.9,7.4c1,3.4,2.9,6.6,6.4,6.9c0.3,0,0.6-0.2,0.6-0.6v-1.1c0-0.3,0.2-0.6,0.6-0.6c0,0,0,0,0,0c0.9,0,2,1.3,2.3,2
		c0.1,0.2,0.3,0.3,0.5,0.3h1.4C16.2,14.3,16.5,13.9,16.3,13.5z"/>
</g>
<g id="Слой_1">
</g>
</svg>
