<?xml version="1.0" encoding="utf-8"?>
<!-- Generator: Adobe Illustrator 23.1.0, SVG Export Plug-In . SVG Version: 6.00 Build 0)  -->
<svg version="1.1" xmlns="http://www.w3.org/2000/svg" xmlns:xlink="http://www.w3.org/1999/xlink" x="0px" y="0px"
	 viewBox="0 0 20 19.8" style="enable-background:new 0 0 20 19.8;" xml:space="preserve">
<style type="text/css">
	.st0{fill:url(#path2995-1-0_3_);}
	.st1{fill:#C8DAEA;}
	.st2{fill:#A9C9DD;}
	.st3{fill:url(#path2991_1_);}
	.st4{fill:#B3B3B3;}
	.st5{fill:#FFFFFF;}
	.st6{fill:none;}
	.st7{fill:url(#SVGID_1_);}
	.st8{fill-rule:evenodd;clip-rule:evenodd;fill:#FFFFFF;}
	.st9{fill:#0085F1;}
</style>
<g id="Слой_2">
	
		<linearGradient id="path2995-1-0_3_" gradientUnits="userSpaceOnUse" x1="108.0898" y1="-735.2535" x2="108.0161" y2="-735.0817" gradientTransform="matrix(62.5 0 0 62.5 -6742.9702 45956.9414)">
		<stop  offset="0" style="stop-color:#37AEE2"/>
		<stop  offset="1" style="stop-color:#1E96C8"/>
	</linearGradient>
	<path id="path2995-1-0" class="st0" d="M19.1,9.9c0,5.1-4.1,9.2-9.2,9.2S0.7,15,0.7,9.9s4.1-9.2,9.2-9.2S19.1,4.8,19.1,9.9z"/>
	<path id="path2993" class="st1" d="M8.3,14.1C8,14.1,8,14,7.9,13.7L7,10.8l5.4-3.4l0.6,0.2L12.6,9L8.3,14.1z"/>
	<path id="path2989" class="st2" d="M8.3,14.1c0.2,0,0.3-0.1,0.5-0.2c0.2-0.2,2.8-2.7,2.8-2.7l-1.6-0.4l-1.5,0.9L8.3,14.1L8.3,14.1z
		"/>
	
		<linearGradient id="path2991_1_" gradientUnits="userSpaceOnUse" x1="751.6479" y1="-354.9927" x2="751.832" y2="-354.6982" gradientTransform="matrix(10.4167 0 0 10.4167 -7819.0317 3708.0215)">
		<stop  offset="0" style="stop-color:#EFF7FC"/>
		<stop  offset="1" style="stop-color:#FFFFFF"/>
	</linearGradient>
	<path id="path2991" class="st3" d="M8.4,11.8l3.7,2.7c0.4,0.2,0.7,0.1,0.8-0.4L14.5,7c0.2-0.6-0.2-0.9-0.6-0.7L5,9.7
		c-0.6,0.2-0.6,0.6-0.1,0.7l2.3,0.7l5.3-3.3c0.2-0.2,0.5-0.1,0.3,0.1L8.4,11.8z"/>
</g>
<g id="Слой_1">
</g>
</svg>
