<svg width="34" height="30" viewBox="0 0 34 30" fill="none" xmlns="http://www.w3.org/2000/svg">
<g clip-path="url(#clip0)">
<path d="M11.3333 22.5765V21.0302C9.25265 19.8663 7.55554 16.9646 7.55554 14.0625C7.55554 9.4026 7.55554 5.625 13.2222 5.625C18.8889 5.625 18.8889 9.4026 18.8889 14.0625C18.8889 16.9646 17.1918 19.8663 15.1111 21.0302V22.5765C21.5186 23.0965 26.4444 26.2216 26.4444 30H-1.12057e-05C-1.12057e-05 26.2216 4.9258 23.0965 11.3333 22.5765Z" fill="white"/>
<path d="M24.3432 23.3006C22.7108 22.2415 20.6811 21.4363 18.4467 20.9447C18.891 20.4237 19.2939 19.8425 19.6417 19.2156C20.5394 17.5975 21.0139 15.8155 21.0139 14.0625C21.0139 11.5417 21.0139 9.16084 20.1108 7.214C19.234 5.32424 17.6573 4.1526 15.4115 3.71338C15.9107 1.47275 17.2396 0 20.7778 0C26.4444 0 26.4444 3.7776 26.4444 8.4375C26.4444 11.3396 24.7473 14.2413 22.6667 15.4052V16.9515C29.0742 17.4715 34 20.5966 34 24.375H25.7654C25.337 23.9968 24.8624 23.6375 24.3432 23.3006V23.3006Z" fill="white"/>
</g>
<defs>
<clipPath id="clip0">
<rect width="34" height="30" fill="white" transform="matrix(-1 0 0 1 34 0)"/>
</clipPath>
</defs>
</svg>
